<svg width="17" height="16" viewBox="0 0 17 16" fill="none" xmlns="http://www.w3.org/2000/svg">
<path fill-rule="evenodd" clip-rule="evenodd" d="M12.0239 1.30612C12.9765 1.30612 13.8901 1.68455 14.5637 2.35815C15.2373 3.03175 15.6158 3.94534 15.6158 4.89796V11.102C15.6158 12.0547 15.2373 12.9683 14.5637 13.6419C13.8901 14.3155 12.9765 14.6939 12.0239 14.6939H5.81983C4.86722 14.6939 3.95362 14.3155 3.28002 13.6419C2.60642 12.9683 2.228 12.0547 2.228 11.102V4.89796C2.228 3.94534 2.60642 3.03175 3.28002 2.35815C3.95362 1.68455 4.86722 1.30612 5.81983 1.30612H12.0239ZM12.0239 0H5.81983C4.52201 0.00387607 3.27844 0.521154 2.36074 1.43886C1.44303 2.35657 0.925751 3.60013 0.921875 4.89796V11.102C0.925751 12.3999 1.44303 13.6434 2.36074 14.5611C3.27844 15.4788 4.52201 15.9961 5.81983 16H12.0239C13.3217 15.9961 14.5653 15.4788 15.483 14.5611C16.4007 13.6434 16.918 12.3999 16.9219 11.102V4.89796C16.918 3.60013 16.4007 2.35657 15.483 1.43886C14.5653 0.521154 13.3217 0.00387607 12.0239 0ZM13.1896 2.7749C13.0046 2.7749 12.8237 2.82978 12.6699 2.93259C12.516 3.03541 12.3961 3.18155 12.3253 3.35253C12.2545 3.5235 12.236 3.71164 12.2721 3.89315C12.3082 4.07466 12.3973 4.24139 12.5281 4.37225C12.659 4.50311 12.8257 4.59222 13.0071 4.62833C13.1886 4.66443 13.3767 4.6459 13.5476 4.57508C13.7186 4.50426 13.8647 4.38433 13.9675 4.23045C14.0703 4.07658 14.1252 3.89567 14.1252 3.7106C14.1252 3.58773 14.101 3.46605 14.0539 3.35253C14.0069 3.239 13.938 3.13585 13.8511 3.04896C13.7643 2.96207 13.6611 2.89315 13.5476 2.84613C13.4341 2.7991 13.3125 2.7749 13.1896 2.7749ZM10.5702 5.62332C10.0953 5.30628 9.537 5.13722 8.96596 5.13755C8.20123 5.13884 7.4682 5.44319 6.92746 5.98391C6.38671 6.52464 6.08235 7.25764 6.08106 8.02234C6.08073 8.59336 6.24979 9.15165 6.56685 9.62657C6.8839 10.1015 7.3347 10.4717 7.86221 10.6904C8.38972 10.909 8.97024 10.9663 9.53033 10.855C10.0904 10.7437 10.6049 10.4688 11.0087 10.065C11.4125 9.66121 11.6874 9.14675 11.7987 8.58669C11.9101 8.02662 11.8528 7.44612 11.6341 6.91863C11.4154 6.39114 11.0452 5.94036 10.5702 5.62332ZM6.6387 4.54211C7.32714 4.08038 8.13701 3.83309 8.96596 3.83147C9.51709 3.8304 10.063 3.938 10.5725 4.14811C11.0821 4.35822 11.5451 4.66672 11.9353 5.05596C12.3255 5.4452 12.6351 5.90755 12.8464 6.41655C13.0577 6.92556 13.1666 7.47122 13.1668 8.02234C13.1671 8.85126 12.9217 9.66167 12.4615 10.3512C12.0014 11.0407 11.3472 11.5783 10.5816 11.8961C9.81599 12.2139 8.97335 12.2976 8.16017 12.1367C7.34699 11.9758 6.59977 11.5774 6.01293 10.992C5.42609 10.4065 5.02597 9.66025 4.86314 8.84748C4.70032 8.03471 4.78209 7.19191 5.09812 6.4256C5.41415 5.65928 5.95026 5.00384 6.6387 4.54211Z" fill="#CCCCCC"/>
</svg>
