<svg width="17" height="16" viewBox="0 0 17 16" fill="none" xmlns="http://www.w3.org/2000/svg">
<path fill-rule="evenodd" clip-rule="evenodd" d="M15.8814 7.3744C15.8814 3.8816 12.7614 1.04 8.92139 1.04C5.08139 1.04 1.96139 3.8816 1.96139 7.3744C1.96139 9.256 2.87339 11.0288 4.46859 12.2304L4.87819 12.5504V14.3008L6.31819 13.56L6.66699 13.3808L7.04779 13.4768C7.66021 13.6321 8.28958 13.7105 8.92139 13.7104C12.7614 13.7104 15.8814 10.8672 15.8814 7.3744ZM0.921387 7.3744C0.921387 3.3024 4.50379 0 8.92139 0C13.339 0 16.9214 3.304 16.9214 7.376C16.9214 11.448 13.339 14.7504 8.92139 14.7504C8.20317 14.7502 7.48779 14.6604 6.79179 14.4832L3.83179 16V13.0656C2.05419 11.712 0.921387 9.6656 0.921387 7.3744ZM8.08459 5.21891L3.99179 9.60949L7.72619 7.57741L9.74219 9.7807L13.851 5.29572L10.163 7.3118L8.08459 5.21891Z" fill="#CCCCCC"/>
</svg>
