<svg width="24" height="16" viewBox="0 0 24 16" fill="none" xmlns="http://www.w3.org/2000/svg">
<path fill-rule="evenodd" clip-rule="evenodd" d="M20.3723 1.58702C17.2359 1.3609 12.4853 1.3609 12.4372 1.3609V1.37556H12.4309C12.3849 1.37556 7.63845 1.37765 4.49791 1.60167L4.35972 1.61424L4.3504 1.61515C3.94441 1.65468 3.48537 1.69938 3.04488 2.15441C2.8397 2.35959 2.59683 3.10076 2.51518 3.63465C2.38314 4.79628 2.31325 5.96413 2.30581 7.13321V8.84166C2.31293 10.0108 2.38282 11.1786 2.51518 12.3402C2.59474 12.8678 2.83342 13.6069 3.04279 13.8163C3.43221 14.2204 3.97448 14.2853 4.45184 14.3418C4.57328 14.3544 4.67587 14.369 4.78265 14.3858C6.57694 14.5386 12.1985 14.5951 12.4393 14.5951C12.6487 14.5951 17.2904 14.5742 20.3723 14.3648L20.5147 14.3502L20.518 14.3499C20.9254 14.3102 21.3868 14.2652 21.8274 13.81C22.0326 13.6132 22.2776 12.8616 22.355 12.3444C22.4871 11.1821 22.557 10.0135 22.5644 8.84376V7.11856C22.5573 5.94946 22.4874 4.78159 22.355 3.62C22.2734 3.09029 22.0347 2.34912 21.8253 2.13975C21.3815 1.68123 20.9292 1.63727 20.5105 1.59958L20.3723 1.58702ZM4.38066 0.244962C7.60285 0.0146555 12.4372 0.0146558 12.4372 0.0146558V0C12.4372 0 17.2757 0 20.5042 0.2324C20.546 0.237104 20.5924 0.241423 20.643 0.24613C21.1331 0.291698 22.014 0.37361 22.8073 1.1934C23.4982 1.88432 23.7222 3.4525 23.7222 3.4525C23.8656 4.67502 23.9425 5.90444 23.9525 7.1353V8.86051C23.9411 10.0915 23.8629 11.3209 23.718 12.5433C23.718 12.5433 23.4919 14.1115 22.8031 14.8003C22.016 15.6177 21.1383 15.7015 20.6443 15.7487C20.5917 15.7538 20.5434 15.7584 20.5 15.7634C17.2757 16 12.4372 16 12.4372 16C12.4372 16 6.44923 15.9456 4.60678 15.7718C4.51857 15.7552 4.41155 15.7423 4.29032 15.7277C3.70657 15.6573 2.79354 15.5472 2.06713 14.7982C1.37621 14.1094 1.15218 12.5412 1.15218 12.5412C1.00872 11.3187 0.931839 10.0893 0.921875 8.85841V7.13321C0.935868 5.90705 1.01624 4.68254 1.16265 3.46506C1.16265 3.46506 1.38877 1.89689 2.07759 1.20597C2.86547 0.389749 3.74031 0.306693 4.23434 0.25979C4.28777 0.254718 4.33673 0.250069 4.38066 0.244962ZM16.231 8L10.3707 11.4315V4.56848L16.231 8Z" fill="#CCCCCC"/>
</svg>
